<mxfile host="app.diagrams.net" modified="2024-05-03T22:38:17.606Z" agent="Mozilla/5.0 (Windows NT 10.0; Win64; x64) AppleWebKit/537.36 (KHTML, like Gecko) Chrome/124.0.0.0 Safari/537.36 Edg/124.0.0.0" etag="mXRwYOsc8aChrbLiLx0X" version="24.3.1" type="github">
  <diagram name="Страница — 1" id="OLK240ligt5Lw2F2dsRk">
    <mxGraphModel dx="1666" dy="751" grid="1" gridSize="10" guides="1" tooltips="1" connect="1" arrows="1" fold="1" page="1" pageScale="1" pageWidth="827" pageHeight="1169" math="0" shadow="0">
      <root>
        <mxCell id="0" />
        <mxCell id="1" parent="0" />
      </root>
    </mxGraphModel>
  </diagram>
</mxfile>
